<?xml version="1.0" encoding="UTF-8" standalone="no" ?>
<!DOCTYPE svg PUBLIC "-//W3C//DTD SVG 1.1//EN" "http://www.w3.org/Graphics/SVG/1.1/DTD/svg11.dtd">
<svg xmlns="http://www.w3.org/2000/svg" xmlns:xlink="http://www.w3.org/1999/xlink" version="1.1" width="1280" height="1024" viewBox="0 0 1280 1024" xml:space="preserve">
<desc>Created with Fabric.js 5.3.0</desc>
<defs>
</defs>
<g transform="matrix(1 0 0 1 640 512)" id="background-logo"  >
<rect style="stroke: none; stroke-width: 0; stroke-dasharray: none; stroke-linecap: butt; stroke-dashoffset: 0; stroke-linejoin: miter; stroke-miterlimit: 4; fill: rgb(255,255,255); fill-rule: nonzero; opacity: 1;"  paint-order="stroke"  x="-640" y="-512" rx="0" ry="0" width="1280" height="1024" />
</g>
<g transform="matrix(1.7221985466165377 0 0 1.7221985466165375 640.0385250200532 348.30408814788666)" id="logo-logo"  >
<g style=""  paint-order="stroke"   >
		<g transform="matrix(0.18362013667848437 0 0 0.18362013667848434 -20.785022590576887 39.60686348154911)"  >
<path style="stroke: none; stroke-width: 1; stroke-dasharray: none; stroke-linecap: butt; stroke-dashoffset: 0; stroke-linejoin: miter; stroke-miterlimit: 4; fill: rgb(255,87,88); fill-rule: nonzero; opacity: 1;"  paint-order="stroke"  transform=" translate(-846.8042309162903, -990.75)" d="M 747.8 891.4 C 724.9 901.5 699.9 907.1999999999999 674 907.5 C 689.4 940.6 710.6 971.2 737.2 997.8 C 796.7 1057.3 875.9000000000001 1090.1 960 1090.1 C 979.5 1090.1 998.8 1088.3 1017.6 1084.8999999999999 C 1022.4 1059.3999999999999 1018.4 1034.1 1007.7 1012.3999999999999 C 992.3000000000001 1015.4999999999999 976.4000000000001 1017.0999999999999 960 1017.0999999999999 C 868.7 1017.1 789 966.3 747.8 891.4 z" stroke-linecap="round" />
</g>
		<g transform="matrix(0.18362013667848437 0 0 0.18362013667848434 20.785022590577 -39.62522549521694)"  >
<path style="stroke: none; stroke-width: 1; stroke-dasharray: none; stroke-linecap: butt; stroke-dashoffset: 0; stroke-linejoin: miter; stroke-miterlimit: 4; fill: rgb(83,113,255); fill-rule: nonzero; opacity: 1;"  paint-order="stroke"  transform=" translate(-1073.1957690837098, -559.25)" d="M 1182.8 552.2 C 1123.3 492.70000000000005 1044.1 459.90000000000003 960 459.90000000000003 C 940.5 459.90000000000003 921.2 461.70000000000005 902.4 465.1 C 897.6 490.6 901.6 515.9 912.3 537.6 C 927.6999999999999 534.5 943.5999999999999 532.9 960 532.9 C 1051.3 532.9 1131 583.6999999999999 1172.2 658.6 C 1195.1000000000001 648.5 1220.1000000000001 642.8000000000001 1246 642.4 C 1230.7 609.3 1209.4 578.8 1182.8 552.2 z" stroke-linecap="round" />
</g>
		<g transform="matrix(0.18362013667848437 0 0 0.18362013667848434 -39.616044488382954 -20.79420359741087)"  >
<path style="stroke: none; stroke-width: 1; stroke-dasharray: none; stroke-linecap: butt; stroke-dashoffset: 0; stroke-linejoin: miter; stroke-miterlimit: 4; fill: rgb(127,216,88); fill-rule: nonzero; opacity: 1;"  paint-order="stroke"  transform=" translate(-744.25, -661.8042309162903)" d="M 650.1 832.6 C 675.6 837.4 700.9 833.4 722.6 822.7 C 719.5 807.3000000000001 717.9 791.4000000000001 717.9 775 C 717.9 683.7 768.6999999999999 604 843.6 562.8 C 833.5 539.9 827.8000000000001 514.9 827.4 488.99999999999994 C 794.3 504.3999999999999 763.8 525.5999999999999 737.1999999999999 552.1999999999999 C 677.6999999999999 611.6999999999999 644.9 690.8999999999999 644.9 775 C 644.9 794.5 646.7 813.8 650.1 832.6 z" stroke-linecap="round" />
</g>
		<g transform="matrix(0.18362013667848437 0 0 0.18362013667848434 39.61604448838307 20.775841583743045)"  >
<linearGradient id="SVGID_61_272909" gradientUnits="userSpaceOnUse" gradientTransform="matrix(1 0 0 1 1076.4 715.3915381674196)"  x1="0" y1="0" x2="0" y2="346">
<stop offset="0%" style="stop-color:rgb(250,217,97);stop-opacity: 1"/>
<stop offset="100%" style="stop-color:rgb(247,107,28);stop-opacity: 1"/>
</linearGradient>
<path style="stroke: none; stroke-width: 1; stroke-dasharray: none; stroke-linecap: butt; stroke-dashoffset: 0; stroke-linejoin: miter; stroke-miterlimit: 4; fill: url(#SVGID_61_272909); fill-rule: nonzero; opacity: 1;"  paint-order="stroke"  transform=" translate(-1175.75, -888.1957690837098)" d="M 1269.9 717.4 C 1244.4 712.6 1219.1000000000001 716.6 1197.4 727.3 C 1200.5 742.6999999999999 1202.1000000000001 758.5999999999999 1202.1000000000001 775 C 1202.1000000000001 866.3 1151.3000000000002 946 1076.4 987.2 C 1086.5 1010.1 1092.2 1035.1000000000001 1092.6000000000001 1061 C 1125.7 1045.6 1156.2 1024.4 1182.8000000000002 997.8 C 1242.3000000000002 938.3 1275.1000000000001 859.0999999999999 1275.1000000000001 775 C 1275.1 755.5 1273.3 736.2 1269.9 717.4 z" stroke-linecap="round" />
</g>
		<g transform="matrix(0.18362013667848437 0 0 0.18362013667848434 0 0)"  >
<path style="stroke: none; stroke-width: 1; stroke-dasharray: none; stroke-linecap: butt; stroke-dashoffset: 0; stroke-linejoin: miter; stroke-miterlimit: 4; fill: rgb(0,0,0); fill-rule: nonzero; opacity: 1;"  paint-order="stroke"  transform=" translate(-959.9999999999998, -775.05)" d="M 1148.6 1068.8 C 1148.6 1172.8 1064 1257.3999999999999 959.9999999999999 1257.3999999999999 C 855.9999999999998 1257.3999999999999 771.3999999999999 1172.8 771.3999999999999 1068.8 L 774.7999999999998 1068.8 C 798.3999999999999 1083.7 823.5999999999998 1095.7 849.9999999999999 1104.5 C 865.0999999999999 1150.8 908.5999999999999 1184.4 959.8999999999999 1184.4 C 1011.1999999999998 1184.4 1054.8 1150.8000000000002 1069.8 1104.5 C 1073.5 1093.3 1075.3999999999999 1081.3 1075.3999999999999 1068.8 C 1075.3999999999999 1029.8 1055.9999999999998 995.3 1026.3 974.4 C 1007.5 961.1 984.5 953.3 959.8 953.3 C 920.5 953.3 882.1999999999999 941 850.3 918.5 C 865.4 899.2 877.5 877.4 885.9 853.9 C 906.6999999999999 870.9 932.9 880.3 959.8 880.3 C 978.5 880.3 996.5999999999999 883 1013.6999999999999 888.0999999999999 L 1013.6999999999999 888.0999999999999 C 1044.5 897.3 1072.1 914.1999999999999 1094.1 936.4999999999999 C 1098.6999999999998 941.0999999999999 1103 945.9999999999999 1107 951.0999999999999 C 1132.4 982.8999999999999 1147.8 1022.9999999999999 1148.3 1066.6 C 1148.6 1067.3 1148.6 1068 1148.6 1068.8 z M 816.6 665.5 C 794.1 697.4 781.8000000000001 735.7 781.8000000000001 775 C 781.8000000000001 799.7 774.0000000000001 822.7 760.7 841.5 C 739.8000000000001 871.1 705.2 890.5 666.3000000000001 890.5 C 653.9000000000001 890.5 641.9000000000001 888.5 630.6 884.9 C 584.3000000000001 869.8 550.7 826.3 550.7 775 C 550.7 723.7 584.3000000000001 680.1 630.6 665.1 C 639.4 638.7 651.3000000000001 613.5 666.3000000000001 589.9 L 666.3000000000001 586.5 C 562.3000000000001 586.5 477.70000000000005 671.1 477.70000000000005 775.1 C 477.70000000000005 879.1 562.3000000000001 963.7 666.3000000000001 963.7 C 667.0000000000001 963.7 667.8000000000001 963.7 668.5000000000001 963.7 C 719.1000000000001 963.1 765.0000000000001 942.5 798.6000000000001 909.4000000000001 C 833.3000000000002 875.2 854.9000000000001 827.6000000000001 854.9000000000001 775.1000000000001 C 854.9000000000001 748.2000000000002 864.3000000000001 722.0000000000001 881.3000000000001 701.2000000000002 C 857.7 692.7 836 680.6 816.6 665.5 z M 960 292.7 C 856 292.7 771.4 377.29999999999995 771.4 481.29999999999995 C 771.4 481.99999999999994 771.4 482.79999999999995 771.4 483.49999999999994 C 771.9 527.0999999999999 787.3 567.3 812.6999999999999 599 C 816.8 604.1 821.0999999999999 608.9 825.5999999999999 613.6 C 847.5999999999999 636 875.0999999999999 652.8000000000001 905.9999999999999 662 C 905.9999999999999 662 905.9999999999999 662 905.9999999999999 662 C 923.0999999999999 667.1 941.1999999999999 669.8 959.8999999999999 669.8 C 986.7999999999998 669.8 1012.9999999999999 679.1999999999999 1033.8 696.1999999999999 C 1042.2 672.6999999999999 1054.3 650.9999999999999 1069.3999999999999 631.5999999999999 C 1037.4999999999998 609.0999999999999 999.1999999999998 596.8 959.8999999999999 596.8 C 935.1999999999998 596.8 912.1999999999998 589 893.3999999999999 575.6999999999999 C 863.7999999999998 554.8 844.3999999999999 520.1999999999999 844.3999999999999 481.29999999999995 C 844.3999999999999 468.9 846.3999999999999 456.9 849.9999999999999 445.59999999999997 C 865.0999999999999 399.29999999999995 908.5999999999999 365.69999999999993 959.8999999999999 365.69999999999993 C 1011.1999999999998 365.69999999999993 1054.8 399.29999999999995 1069.8 445.5999999999999 C 1096.2 454.3999999999999 1121.3999999999999 466.2999999999999 1145 481.2999999999999 L 1148.4 481.2999999999999 C 1148.6 377.2 1064 292.7 960 292.7 z M 1253.8 586.4 C 1253.1 586.4 1252.3 586.4 1251.6 586.4 C 1208 586.9 1167.8 602.3 1136.1 627.6999999999999 C 1131 631.8 1126.1999999999998 636.0999999999999 1121.5 640.5999999999999 C 1099.1 662.5999999999999 1082.3 690.0999999999999 1073.1 720.9999999999999 C 1073.1 720.9999999999999 1073.1 720.9999999999999 1073.1 720.9999999999999 C 1068 738.0999999999999 1065.1999999999998 756.1999999999999 1065.1999999999998 774.8999999999999 C 1065.1999999999998 801.7999999999998 1055.7999999999997 827.9999999999999 1038.7999999999997 848.7999999999998 C 1062.2999999999997 857.1999999999998 1083.9999999999998 869.2999999999998 1103.3999999999996 884.3999999999999 C 1125.8999999999996 852.4999999999999 1138.1999999999996 814.1999999999998 1138.1999999999996 774.8999999999999 C 1138.1999999999996 750.1999999999998 1145.9999999999995 727.1999999999998 1159.2999999999995 708.3999999999999 C 1180.1999999999996 678.7999999999998 1214.7999999999995 659.3999999999999 1253.6999999999996 659.3999999999999 C 1266.0999999999997 659.3999999999999 1278.0999999999997 661.3999999999999 1289.3999999999996 664.9999999999999 C 1335.6999999999996 680.0999999999999 1369.2999999999997 723.5999999999999 1369.2999999999997 774.8999999999999 C 1369.2999999999997 826.1999999999998 1335.6999999999998 869.7999999999998 1289.3999999999996 884.7999999999998 C 1280.5999999999997 911.1999999999998 1268.6999999999996 936.3999999999999 1253.6999999999996 959.9999999999999 L 1253.6999999999996 963.3999999999999 C 1357.6999999999996 963.3999999999999 1442.2999999999995 878.7999999999998 1442.2999999999995 774.7999999999998 C 1442.2999999999995 670.7999999999998 1357.8 586.4 1253.8 586.4 z" stroke-linecap="round" />
</g>
</g>
</g>
<g transform="matrix(1.9211538461538462 0 0 1.9211538461538462 655.9464846421639 591.2806266085986)" id="text-logo"  >
<g style=""  paint-order="stroke"   >
		<g transform="matrix(1 0 0 1 0 0)" id="text-logo-path-0"  >
<path style="stroke: rgb(255,255,255); stroke-width: 0; stroke-dasharray: none; stroke-linecap: butt; stroke-dashoffset: 0; stroke-linejoin: miter; stroke-miterlimit: 4; fill: rgb(0,0,0); fill-rule: nonzero; opacity: 1;"  paint-order="stroke"  transform=" translate(-166.385, 11.195)" d="M 1.26 0 L 2.44 0 L 5.5 -10.16 L 16.09 -10.16 L 19.19 0 L 22.3 0 L 13.31 -29.4 L 10.21 -29.4 Z M 5.88 -11.3 L 10.79 -27.47 L 15.75 -11.3 Z M 32.38 -29.4 L 32.38 0 L 35.49 0 L 35.49 -14.11 L 48.01 -14.11 L 48.01 -15.29 L 35.49 -15.29 L 35.49 -28.22 L 49.9 -28.22 L 49.9 -29.4 Z M 63.08 -1.18 L 63.08 -14.11 L 74.05 -14.11 L 74.05 -15.29 L 63.08 -15.29 L 63.08 -28.22 L 77.07 -28.22 L 77.07 -29.4 L 59.98 -29.4 L 59.98 0 L 77.07 0 L 77.07 -1.18 Z M 87.15 -29.4 L 94.92 -15.16 L 94.92 0 L 98.03 0 L 98.03 -15.16 L 105.8 -29.4 L 104.66 -29.4 L 97.44 -16.25 L 90.26 -29.4 Z M 115.88 0 L 117.05 0 L 120.12 -10.16 L 130.7 -10.16 L 133.81 0 L 136.92 0 L 127.93 -29.4 L 124.82 -29.4 Z M 120.5 -11.3 L 125.41 -27.47 L 130.37 -11.3 Z M 170.23 -14.7 C 170.23 -6.22 175.94 0.38 184.04 0.38 C 191.31 0.38 196.56 -4.33 197.74 -12.52 L 186.35 -12.52 L 186.35 -11.34 L 194.42 -11.34 C 193.2 -5.12 189.13 -0.8 184.04 -0.8 C 177.87 -0.8 173.33 -6.34 173.33 -14.7 C 173.33 -22.51 177.79 -28.64 184.04 -28.64 C 187.61 -28.64 190.22 -27.05 192.53 -23.14 L 194.21 -24.86 C 191.6 -27.97 187.99 -29.78 184.04 -29.78 C 176.11 -29.78 170.23 -23.73 170.23 -14.7 Z M 218.32 -29.4 L 207.82 -29.4 L 207.82 0 L 210.92 0 L 210.92 -8.86 L 214.66 -8.86 C 216.59 -8.61 218.27 -7.69 219.74 -6.51 C 222.1 -4.62 223.99 -2.23 226.3 0 C 228.56 2.18 230.87 4.54 233.98 6.13 C 235.49 6.89 237.26 7.39 239.02 7.39 C 240.83 7.39 242.51 6.85 243.94 6.01 L 243.47 4.91 C 242.42 5.21 241.37 5.38 240.37 5.38 C 237.01 5.38 234.19 3.23 231.8 1.05 C 230.66 0 229.57 -1.09 228.48 -2.23 C 225.92 -4.87 222.6 -7.56 219.11 -8.9 C 224.41 -9.32 228.56 -13.73 228.56 -19.15 C 228.56 -24.82 223.99 -29.4 218.32 -29.4 Z M 210.92 -10.04 L 210.92 -28.22 L 216.34 -28.22 C 221.38 -28.22 225.46 -24.15 225.46 -19.15 C 225.46 -14.11 221.38 -10.04 216.34 -10.04 Z M 240.49 -14.7 C 240.49 -6.59 246.71 0.38 254.31 0.38 C 261.95 0.38 268.17 -6.59 268.17 -14.7 C 268.17 -22.81 261.95 -29.78 254.31 -29.78 C 246.67 -29.78 240.49 -22.81 240.49 -14.7 Z M 243.6 -14.7 C 243.6 -22.18 248.39 -28.64 254.31 -28.64 C 260.23 -28.64 265.06 -22.18 265.06 -14.7 C 265.06 -7.22 260.23 -0.8 254.31 -0.8 C 248.39 -0.8 243.6 -7.22 243.6 -14.7 Z M 281.36 -11.21 L 281.36 -29.4 L 278.25 -29.4 L 278.25 -11.21 C 278.25 -5.04 283.29 0.38 289.46 0.38 C 295.68 0.38 300.68 -5.04 300.68 -11.21 L 300.68 -29.4 L 299.5 -29.4 L 299.5 -11.21 C 299.5 -5.67 295.47 -0.8 290.43 -0.8 C 285.43 -0.8 281.36 -5.67 281.36 -11.21 Z M 310.76 0 L 313.87 0 L 313.87 -8.86 L 321.26 -8.86 C 326.93 -8.86 331.51 -13.48 331.51 -19.15 C 331.51 -24.82 326.93 -29.4 321.26 -29.4 L 310.76 -29.4 Z M 313.87 -10.04 L 313.87 -28.22 L 319.28 -28.22 C 324.32 -28.22 328.4 -24.15 328.4 -19.15 C 328.4 -14.11 324.32 -10.04 319.28 -10.04 Z" stroke-linecap="round" />
</g>
</g>
</g>
<g transform="matrix(1.9211538461538462 0 0 1.9211538461538462 655.9194290990037 660.728473252199)" id="tagline-aa81d625-44b3-4d7b-b7d3-521bc4977f68-logo"  >
<g style=""  paint-order="stroke"   >
		<g transform="matrix(1 0 0 1 -5.684342e-14 0)" id="tagline-aa81d625-44b3-4d7b-b7d3-521bc4977f68-logo-path-0"  >
<path style="stroke: none; stroke-width: 0; stroke-dasharray: none; stroke-linecap: butt; stroke-dashoffset: 0; stroke-linejoin: miter; stroke-miterlimit: 4; fill: rgb(0,0,0); fill-rule: nonzero; opacity: 1;"  paint-order="stroke"  transform=" translate(-214.745, 5.295000000000001)" d="M 6.93 -9.46 L 2.46 -9.46 L 2.46 -5.85 L 6.48 -5.85 L 6.48 -4.8 L 2.46 -4.8 L 2.46 -1.11 L 6.93 -1.11 L 6.93 0 L 1.09 0 L 1.09 -10.57 L 6.93 -10.57 L 6.93 -9.46 Z M 21.67 -10.39 L 23.31 -10.39 L 23.31 0 L 21.95 0 L 21.95 -8.29 L 18.63 0 L 17.41 0 L 14.09 -8.27 L 14.09 0 L 12.72 0 L 12.72 -10.39 L 14.36 -10.39 L 18.05 -1.67 L 21.67 -10.39 Z M 32.9 -4.26 L 30.9 -4.26 L 30.9 0 L 29.54 0 L 29.54 -10.57 L 32.9 -10.57 Q 34.71 -10.57 35.61 -9.73 Q 36.51 -8.88 36.51 -7.41 L 36.51 -7.41 Q 36.51 -5.92 35.58 -5.09 Q 34.65 -4.26 32.9 -4.26 L 32.9 -4.26 Z M 32.77 -5.4 Q 34.02 -5.4 34.57 -5.92 Q 35.12 -6.45 35.12 -7.41 L 35.12 -7.41 Q 35.12 -8.4 34.57 -8.92 Q 34.02 -9.44 32.77 -9.44 L 32.77 -9.44 L 30.9 -9.44 L 30.9 -5.4 L 32.77 -5.4 Z M 46.98 -10.71 Q 48.45 -10.71 49.63 -10.02 Q 50.81 -9.33 51.48 -8.09 Q 52.16 -6.85 52.16 -5.29 L 52.16 -5.29 Q 52.16 -3.73 51.48 -2.5 Q 50.81 -1.26 49.63 -0.57 Q 48.45 0.12 46.98 0.12 L 46.98 0.12 Q 45.51 0.12 44.32 -0.57 Q 43.13 -1.26 42.45 -2.5 Q 41.78 -3.73 41.78 -5.29 L 41.78 -5.29 Q 41.78 -6.85 42.45 -8.09 Q 43.13 -9.33 44.32 -10.02 Q 45.51 -10.71 46.98 -10.71 L 46.98 -10.71 Z M 46.98 -9.44 Q 45.89 -9.44 45.02 -8.93 Q 44.16 -8.43 43.67 -7.49 Q 43.19 -6.55 43.19 -5.29 L 43.19 -5.29 Q 43.19 -4.05 43.67 -3.1 Q 44.16 -2.16 45.02 -1.66 Q 45.89 -1.16 46.98 -1.16 L 46.98 -1.16 Q 48.06 -1.16 48.92 -1.67 Q 49.79 -2.17 50.27 -3.11 Q 50.76 -4.05 50.76 -5.29 L 50.76 -5.29 Q 50.76 -6.55 50.27 -7.49 Q 49.79 -8.43 48.92 -8.93 Q 48.06 -9.44 46.98 -9.44 L 46.98 -9.44 Z M 69.54 -10.57 L 71.04 -10.57 L 68.36 0 L 66.69 0 L 64.25 -8.64 L 61.8 0 L 60.14 0 L 57.44 -10.57 L 58.95 -10.57 L 60.98 -1.59 L 63.48 -10.57 L 65 -10.57 L 67.5 -1.62 L 69.54 -10.57 Z M 82.52 -9.46 L 78.05 -9.46 L 78.05 -5.85 L 82.07 -5.85 L 82.07 -4.8 L 78.05 -4.8 L 78.05 -1.11 L 82.52 -1.11 L 82.52 0 L 76.68 0 L 76.68 -10.57 L 82.52 -10.57 L 82.52 -9.46 Z M 95.46 0 L 93.92 0 L 91.16 -4.32 L 89.67 -4.32 L 89.67 0 L 88.31 0 L 88.31 -10.57 L 91.79 -10.57 Q 93.59 -10.57 94.49 -9.71 Q 95.39 -8.85 95.39 -7.42 L 95.39 -7.42 Q 95.39 -6.13 94.67 -5.35 Q 93.95 -4.56 92.58 -4.37 L 92.58 -4.37 L 95.46 0 Z M 89.67 -9.39 L 89.67 -5.31 L 91.67 -5.31 Q 93.99 -5.31 93.99 -7.35 L 93.99 -7.35 Q 93.99 -9.39 91.67 -9.39 L 91.67 -9.39 L 89.67 -9.39 Z M 101.09 -10.57 L 102.45 -10.57 L 102.45 0 L 101.09 0 L 101.09 -10.57 Z M 116.9 -10.57 L 116.9 0 L 115.53 0 L 110.04 -8.36 L 110.04 0 L 108.68 0 L 108.68 -10.57 L 110.04 -10.57 L 115.53 -2.21 L 115.53 -10.57 L 116.9 -10.57 Z M 127.92 -10.68 Q 129.77 -10.68 131.02 -9.76 Q 132.27 -8.85 132.71 -7.27 L 132.71 -7.27 L 131.27 -7.27 Q 130.89 -8.23 130.01 -8.82 Q 129.13 -9.4 127.94 -9.4 L 127.94 -9.4 Q 126.86 -9.4 126 -8.9 Q 125.15 -8.4 124.66 -7.47 Q 124.17 -6.54 124.17 -5.28 L 124.17 -5.28 Q 124.17 -3.99 124.67 -3.05 Q 125.16 -2.11 126.04 -1.61 Q 126.92 -1.11 128.06 -1.11 L 128.06 -1.11 Q 129.03 -1.11 129.84 -1.53 Q 130.65 -1.95 131.17 -2.75 Q 131.69 -3.55 131.79 -4.63 L 131.79 -4.63 L 127.64 -4.63 L 127.64 -5.65 L 132.94 -5.65 L 132.94 -4.39 Q 132.81 -3.13 132.16 -2.11 Q 131.52 -1.09 130.43 -0.49 Q 129.33 0.1 127.94 0.1 L 127.94 0.1 Q 126.41 0.1 125.23 -0.58 Q 124.07 -1.26 123.41 -2.48 Q 122.76 -3.71 122.76 -5.28 L 122.76 -5.28 Q 122.76 -6.85 123.41 -8.08 Q 124.07 -9.3 125.23 -9.99 Q 126.41 -10.68 127.92 -10.68 L 127.92 -10.68 Z M 145.71 -10.57 L 153.04 -10.57 L 153.04 -9.46 L 150.06 -9.46 L 150.06 0 L 148.69 0 L 148.69 -9.46 L 145.71 -9.46 L 145.71 -10.57 Z M 163.28 -10.71 Q 164.75 -10.71 165.92 -10.02 Q 167.1 -9.33 167.78 -8.09 Q 168.45 -6.85 168.45 -5.29 L 168.45 -5.29 Q 168.45 -3.73 167.78 -2.5 Q 167.1 -1.26 165.92 -0.57 Q 164.75 0.12 163.28 0.12 L 163.28 0.12 Q 161.81 0.12 160.61 -0.57 Q 159.42 -1.26 158.75 -2.5 Q 158.07 -3.73 158.07 -5.29 L 158.07 -5.29 Q 158.07 -6.85 158.75 -8.09 Q 159.42 -9.33 160.61 -10.02 Q 161.81 -10.71 163.28 -10.71 L 163.28 -10.71 Z M 163.28 -9.44 Q 162.18 -9.44 161.32 -8.93 Q 160.46 -8.43 159.97 -7.49 Q 159.48 -6.55 159.48 -5.29 L 159.48 -5.29 Q 159.48 -4.05 159.97 -3.1 Q 160.46 -2.16 161.32 -1.66 Q 162.18 -1.16 163.28 -1.16 L 163.28 -1.16 Q 164.36 -1.16 165.22 -1.67 Q 166.08 -2.17 166.57 -3.11 Q 167.06 -4.05 167.06 -5.29 L 167.06 -5.29 Q 167.06 -6.55 166.57 -7.49 Q 166.08 -8.43 165.22 -8.93 Q 164.36 -9.44 163.28 -9.44 L 163.28 -9.44 Z M 183.29 -10.39 L 184.92 -10.39 L 184.92 0 L 183.56 0 L 183.56 -8.29 L 180.24 0 L 179.03 0 L 175.7 -8.27 L 175.7 0 L 174.33 0 L 174.33 -10.39 L 175.97 -10.39 L 179.66 -1.67 L 183.29 -10.39 Z M 195.99 -10.71 Q 197.46 -10.71 198.64 -10.02 Q 199.81 -9.33 200.49 -8.09 Q 201.17 -6.85 201.17 -5.29 L 201.17 -5.29 Q 201.17 -3.73 200.49 -2.5 Q 199.81 -1.26 198.64 -0.57 Q 197.46 0.12 195.99 0.12 L 195.99 0.12 Q 194.52 0.12 193.33 -0.57 Q 192.14 -1.26 191.46 -2.5 Q 190.79 -3.73 190.79 -5.29 L 190.79 -5.29 Q 190.79 -6.85 191.46 -8.09 Q 192.14 -9.33 193.33 -10.02 Q 194.52 -10.71 195.99 -10.71 L 195.99 -10.71 Z M 195.99 -9.44 Q 194.9 -9.44 194.03 -8.93 Q 193.17 -8.43 192.68 -7.49 Q 192.2 -6.55 192.2 -5.29 L 192.2 -5.29 Q 192.2 -4.05 192.68 -3.1 Q 193.17 -2.16 194.03 -1.66 Q 194.9 -1.16 195.99 -1.16 L 195.99 -1.16 Q 197.07 -1.16 197.93 -1.67 Q 198.8 -2.17 199.28 -3.11 Q 199.77 -4.05 199.77 -5.29 L 199.77 -5.29 Q 199.77 -6.55 199.28 -7.49 Q 198.8 -8.43 197.93 -8.93 Q 197.07 -9.44 195.99 -9.44 L 195.99 -9.44 Z M 214.2 0 L 212.66 0 L 209.9 -4.32 L 208.41 -4.32 L 208.41 0 L 207.05 0 L 207.05 -10.57 L 210.53 -10.57 Q 212.33 -10.57 213.23 -9.71 Q 214.13 -8.85 214.13 -7.42 L 214.13 -7.42 Q 214.13 -6.13 213.41 -5.35 Q 212.69 -4.56 211.32 -4.37 L 211.32 -4.37 L 214.2 0 Z M 208.41 -9.39 L 208.41 -5.31 L 210.41 -5.31 Q 212.73 -5.31 212.73 -7.35 L 212.73 -7.35 Q 212.73 -9.39 210.41 -9.39 L 210.41 -9.39 L 208.41 -9.39 Z M 226.98 0 L 225.44 0 L 222.68 -4.32 L 221.19 -4.32 L 221.19 0 L 219.83 0 L 219.83 -10.57 L 223.31 -10.57 Q 225.11 -10.57 226.01 -9.71 Q 226.91 -8.85 226.91 -7.42 L 226.91 -7.42 Q 226.91 -6.13 226.19 -5.35 Q 225.47 -4.56 224.1 -4.37 L 224.1 -4.37 L 226.98 0 Z M 221.19 -9.39 L 221.19 -5.31 L 223.19 -5.31 Q 225.51 -5.31 225.51 -7.35 L 225.51 -7.35 Q 225.51 -9.39 223.19 -9.39 L 223.19 -9.39 L 221.19 -9.39 Z M 237.45 -10.71 Q 238.92 -10.71 240.1 -10.02 Q 241.28 -9.33 241.95 -8.09 Q 242.63 -6.85 242.63 -5.29 L 242.63 -5.29 Q 242.63 -3.73 241.95 -2.5 Q 241.28 -1.26 240.1 -0.57 Q 238.92 0.12 237.45 0.12 L 237.45 0.12 Q 235.98 0.12 234.79 -0.57 Q 233.6 -1.26 232.92 -2.5 Q 232.25 -3.73 232.25 -5.29 L 232.25 -5.29 Q 232.25 -6.85 232.92 -8.09 Q 233.6 -9.33 234.79 -10.02 Q 235.98 -10.71 237.45 -10.71 L 237.45 -10.71 Z M 237.45 -9.44 Q 236.36 -9.44 235.49 -8.93 Q 234.63 -8.43 234.14 -7.49 Q 233.66 -6.55 233.66 -5.29 L 233.66 -5.29 Q 233.66 -4.05 234.14 -3.1 Q 234.63 -2.16 235.49 -1.66 Q 236.36 -1.16 237.45 -1.16 L 237.45 -1.16 Q 238.53 -1.16 239.39 -1.67 Q 240.26 -2.17 240.74 -3.11 Q 241.23 -4.05 241.23 -5.29 L 241.23 -5.29 Q 241.23 -6.55 240.74 -7.49 Q 240.26 -8.43 239.39 -8.93 Q 238.53 -9.44 237.45 -9.44 L 237.45 -9.44 Z M 260.01 -10.57 L 261.51 -10.57 L 258.83 0 L 257.16 0 L 254.72 -8.64 L 252.27 0 L 250.61 0 L 247.91 -10.57 L 249.42 -10.57 L 251.45 -1.59 L 253.95 -10.57 L 255.47 -10.57 L 257.97 -1.62 L 260.01 -10.57 Z M 286.4 -10.57 L 287.9 -10.57 L 285.21 0 L 283.55 0 L 281.1 -8.64 L 278.66 0 L 276.99 0 L 274.29 -10.57 L 275.81 -10.57 L 277.83 -1.59 L 280.34 -10.57 L 281.85 -10.57 L 284.36 -1.62 L 286.4 -10.57 Z M 293.54 -10.57 L 294.9 -10.57 L 294.9 0 L 293.54 0 L 293.54 -10.57 Z M 300.27 -10.57 L 307.61 -10.57 L 307.61 -9.46 L 304.62 -9.46 L 304.62 0 L 303.26 0 L 303.26 -9.46 L 300.27 -9.46 L 300.27 -10.57 Z M 319.73 -10.57 L 321.11 -10.57 L 321.11 0 L 319.73 0 L 319.73 -4.89 L 314.36 -4.89 L 314.36 0 L 312.99 0 L 312.99 -10.57 L 314.36 -10.57 L 314.36 -6 L 319.73 -6 L 319.73 -10.57 Z M 342.15 0 L 341.27 -2.44 L 336.62 -2.44 L 335.73 0 L 334.26 0 L 338.18 -10.38 L 339.72 -10.38 L 343.62 0 L 342.15 0 Z M 337.01 -3.51 L 340.88 -3.51 L 338.94 -8.85 L 337.01 -3.51 Z M 349.04 -10.57 L 350.4 -10.57 L 350.4 0 L 349.04 0 L 349.04 -10.57 Z M 363.51 -10.57 L 370.85 -10.57 L 370.85 -9.46 L 367.86 -9.46 L 367.86 0 L 366.5 0 L 366.5 -9.46 L 363.51 -9.46 L 363.51 -10.57 Z M 381.08 -10.71 Q 382.55 -10.71 383.72 -10.02 Q 384.9 -9.33 385.58 -8.09 Q 386.25 -6.85 386.25 -5.29 L 386.25 -5.29 Q 386.25 -3.73 385.58 -2.5 Q 384.9 -1.26 383.72 -0.57 Q 382.55 0.12 381.08 0.12 L 381.08 0.12 Q 379.61 0.12 378.41 -0.57 Q 377.22 -1.26 376.55 -2.5 Q 375.87 -3.73 375.87 -5.29 L 375.87 -5.29 Q 375.87 -6.85 376.55 -8.09 Q 377.22 -9.33 378.41 -10.02 Q 379.61 -10.71 381.08 -10.71 L 381.08 -10.71 Z M 381.08 -9.44 Q 379.98 -9.44 379.12 -8.93 Q 378.26 -8.43 377.77 -7.49 Q 377.28 -6.55 377.28 -5.29 L 377.28 -5.29 Q 377.28 -4.05 377.77 -3.1 Q 378.26 -2.16 379.12 -1.66 Q 379.98 -1.16 381.08 -1.16 L 381.08 -1.16 Q 382.16 -1.16 383.02 -1.67 Q 383.88 -2.17 384.37 -3.11 Q 384.86 -4.05 384.86 -5.29 L 384.86 -5.29 Q 384.86 -6.55 384.37 -7.49 Q 383.88 -8.43 383.02 -8.93 Q 382.16 -9.44 381.08 -9.44 L 381.08 -9.44 Z M 401.04 -5.29 Q 401.04 -3.69 400.4 -2.5 Q 399.75 -1.3 398.5 -0.65 Q 397.25 0 395.49 0 L 395.49 0 L 392.13 0 L 392.13 -10.57 L 395.49 -10.57 Q 397.25 -10.57 398.5 -9.94 Q 399.75 -9.3 400.4 -8.11 Q 401.04 -6.92 401.04 -5.29 L 401.04 -5.29 Z M 395.39 -1.23 Q 397.46 -1.23 398.55 -2.29 Q 399.65 -3.36 399.65 -5.29 L 399.65 -5.29 Q 399.65 -7.23 398.56 -8.3 Q 397.47 -9.38 395.39 -9.38 L 395.39 -9.38 L 393.5 -9.38 L 393.5 -1.23 L 395.39 -1.23 Z M 414 0 L 413.12 -2.44 L 408.47 -2.44 L 407.58 0 L 406.11 0 L 410.03 -10.38 L 411.57 -10.38 L 415.47 0 L 414 0 Z M 408.86 -3.51 L 412.73 -3.51 L 410.79 -8.85 L 408.86 -3.51 Z M 426.84 -10.57 L 428.4 -10.57 L 424.94 -4 L 424.94 0 L 423.56 0 L 423.56 -4 L 420.08 -10.57 L 421.67 -10.57 L 424.26 -5.46 L 426.84 -10.57 Z" stroke-linecap="round" />
</g>
</g>
</g>
<g transform="matrix(1.7372453581314413 0 0 1.7372453581314413 640.0677563754748 353.76357192891624)" id="shape-c7990718-24eb-49d3-b65f-7d70017ac3a2"  >
<g style=""  paint-order="stroke"   >
		<g transform="matrix(1 0 0 1 0 0)" id="Layer_1"  >
<path style="stroke: none; stroke-width: 1; stroke-dasharray: none; stroke-linecap: butt; stroke-dashoffset: 0; stroke-linejoin: miter; stroke-miterlimit: 4; fill: rgb(0,0,0); fill-rule: nonzero; opacity: 1;"  paint-order="stroke"  transform=" translate(-100, -100)" d="M 193.6 200 L 6.4 200 C 2.8676609342048587 199.9944936157441 0.005506384255905772 197.13233906579512 0 193.6 L 0 6.4 C 0.005506384255909812 2.8676609342048622 2.867660934204863 0.005506384255910213 6.400000000000001 8.881784197001252e-16 L 193.6 0 C 197.13233906579512 0.005506384255904895 199.9944936157441 2.8676609342048587 200 6.4 L 200 193.6 C 199.9944936157441 197.13233906579515 197.13233906579515 199.9944936157441 193.6 200 Z M 6.4 3 C 4.531254575663674 3.021606150930564 3.0216061509305634 4.531254575663674 3 6.4 L 3 193.6 C 3.0216061509305607 195.46874542433633 4.531254575663671 196.97839384906945 6.4 197 L 193.6 197 C 195.46874542433633 196.97839384906945 196.97839384906945 195.46874542433633 197 193.6 L 197 6.4 C 196.97839384906945 4.531254575663671 195.46874542433633 3.02160615093056 193.6 3 Z" stroke-linecap="round" />
</g>
</g>
</g>
</svg>